# xmcd
#
# Track frame offsets:
#	150
#	16202
#	29212
#	44017
#	59605
#	72257
#	88310
#	101322
#	116127
#	131715
#
# Disc length: 1924 seconds
#
# Revision: 1
# Processed by: cddbd v1.5.2PL0 Copyright (c) Steve Scherf et al.
# Submitted via: audiograbber 1.83.01
#
DISCID=9607820a
DTITLE=Sing Classic Country v.1 - PSC1409G
DYEAR=1900
DGENRE=Karaoke
TTITLE0=Anderson, Lynn - Rose Garden
TTITLE1=Wynette, Tammy - Stand By Your Man
TTITLE2=Lynn, Loretta - Coal Miner's Daughter
TTITLE3=Riley, Jeannie C. - Harper Valley PTA
TTITLE4=Osmond, Marie - Paper Roses
TTITLE5=Anderson, Lynn - Rose Garden w/ Vocals
TTITLE6=Wynette, Tammy - Stand By Your Man w/ Vocals
TTITLE7=Lynn, Loretta - Coal Miner's Daughter w/ Vocals
TTITLE8=Riley, Jeannie C. - Harper Valley PTA w/ Vocals
TTITLE9=Osmond, Marie - Paper Roses w/ Vocals
EXTD=
EXTT0=
EXTT1=
EXTT2=
EXTT3=
EXTT4=
EXTT5=
EXTT6=
EXTT7=
EXTT8=
EXTT9=
PLAYORDER=
